<?xml version="1.0" encoding="utf-8"?>
<!-- Generator: Adobe Illustrator 24.0.2, SVG Export Plug-In . SVG Version: 6.00 Build 0)  -->
<svg version="1.1" id="fc22ab48-8f9a-4d8d-921d-dedaab023bdf"
	 xmlns="http://www.w3.org/2000/svg" xmlns:xlink="http://www.w3.org/1999/xlink" x="0px" y="0px" viewBox="0 0 976.2 767"
	 style="enable-background:new 0 0 976.2 767;" xml:space="preserve">
<style type="text/css">
	.st0{fill:#FF6584;}
	.st1{fill:#2F2E41;}
	.st2{fill:#D0CDE1;}
	.st3{fill:#3F3D56;}
	.st4{fill:#FFB8B8;}
	.st5{fill:#4F65E6;}
	.st6{opacity:0.1;enable-background:new    ;}
</style>
<title>gift_box</title>
<g>
	<rect x="163.6" y="356.8" transform="matrix(0.5 -0.866 0.866 0.5 -235.4539 350.9587)" class="st0" width="45.3" height="45.3"/>
	<path class="st1" d="M177.4,418.5l23.6-40.9l-40.9-23.6l-23.6,40.9L177.4,418.5z M198.3,378.3l-21.6,37.5l-37.5-21.6l21.6-37.5
		L198.3,378.3z"/>
	<circle class="st2" cx="214.1" cy="509.5" r="19"/>
	<path class="st1" d="M200.1,529.5c11,0,20-9,20-20s-9-20-20-20s-20,9-20,20C180.1,520.5,189.1,529.5,200.1,529.5z M200.1,491.5
		c9.9,0,18,8.1,18,18s-8.1,18-18,18s-18-8.1-18-18C182.1,499.6,190.2,491.5,200.1,491.5z"/>
	<circle class="st2" cx="713.2" cy="394.8" r="106"/>
	<path class="st3" d="M741.9,549.6l-26.1,16.2V456.5l29.2-18.1c2.4-1.5,4.2-3.8,4.9-6.6l0,0l0,0c-2.8-0.5-5.7,0-8.1,1.5l-26.1,16.2
		v-42.4c0-8.2-1-16.4-3-24.3c-2,7.9-3,16.1-3,24.3v69.1l-38.5-23.8c-3.1-1.9-6.6-2.9-10.2-2.8c1.6,3.3,4,6,7.1,7.9l41.6,25.8v215h6
		V572.8l29.2-18.1c2.4-1.5,4.2-3.8,4.9-6.6l0,0l0,0C747.2,547.5,744.3,548.1,741.9,549.6z"/>
	<circle class="st2" cx="870.2" cy="403.8" r="106"/>
	<path class="st3" d="M841.6,558.6l26.1,16.2V465.5l-29.2-18.1c-2.4-1.5-4.2-3.8-4.9-6.6h0h0c2.8-0.5,5.7,0,8.1,1.5l26.1,16.2v-42.4
		c0-8.2,1-16.4,3-24.3c2,7.9,3,16.1,3,24.3v69.1l38.5-23.8c3.1-1.9,6.6-2.9,10.2-2.8c-1.6,3.3-4,6-7.1,7.9l-41.6,25.8v215h-6V581.8
		l-29.2-18.1c-2.4-1.5-4.2-3.8-4.9-6.6h0h0C836.3,556.5,839.2,557.1,841.6,558.6z"/>
	<ellipse class="st3" cx="590.2" cy="708.6" rx="299" ry="14.6"/>
	<ellipse class="st3" cx="321.2" cy="731.5" rx="299" ry="14.6"/>
	<ellipse class="st3" cx="571.2" cy="752.4" rx="299" ry="14.6"/>
	<polygon class="st4" points="508.2,687 514.2,716 489.2,716 492.2,687 	"/>
	<polygon class="st4" points="596.2,677 602.2,706 577.2,706 580.2,677 	"/>
	<path class="st4" d="M559.7,422.5c0,0-8,35-16,46s-27,43-27,43s-4,40-19,31c-15-9,8-38,8-38l29-64l6-22L559.7,422.5z"/>
	<circle class="st4" cx="518.2" cy="305" r="27"/>
	<path class="st4" d="M511.7,323.5l13,29l27-7c0,0-21-23-18-33L511.7,323.5z"/>
	<path class="st1" d="M554.7,340.5c0,0-32,1-40,12c-8,11-12,16-12,16s-11,3-12,17s-3,37-3,37s-24,26-28,76s-38,197,0,198s65,15,60-3
		s-13-122-13-122s6,128,30,127s55-17,62-19s-51-125-51-125l-7-107C540.7,447.5,591.7,357.5,554.7,340.5z"/>
	<polygon class="st1" points="564.7,370.5 559.7,435.5 537.7,435.5 	"/>
	<path class="st4" d="M522.7,420.5c0,0-8,35-16,46c-8,11-27,43-27,43s-4,40-19,31s8-38,8-38l29-64l6-22L522.7,420.5z"/>
	<path class="st1" d="M505.7,710.5c0,0,7-8,9-4s11,24-2,24c-13,0-70-3-63-15s17-9,17-9h13c0,0,9.4-10.4,11.2-6.7s4.8,9.7,4.8,9.7
		S500.7,714.5,505.7,710.5z"/>
	<path class="st1" d="M597.3,692.9c0,0,1.7-10.5,5.5-8.1c3.8,2.3,22,14.6,10.9,21.5c-11.1,6.8-61.1,34.3-61.5,20.4S562,710,562,710
		l11.1-6.8c0,0,2.5-13.8,6-11.6s9.2,5.7,9.2,5.7S595.1,698.9,597.3,692.9z"/>
	<path class="st1" d="M534.7,346.5c0,0,7,14,0,39s-12,46-12,46s-16-10-23-7s11.1-66.6,11.1-66.6S521.7,334.5,534.7,346.5z"/>
	<path class="st1" d="M485.7,296.6c0,0-9.7-33.8,28.2-28c0,0,25.1-8.7,38.5,22.3l13.7,32.5l-4.5-1.6l-1.3,4.6l-6.5,2.7l-3.8-5.3
		l-0.3,7.2L495,345c0,0,22.6-18.5,19-44.9l-4,5.7L485.7,296.6z"/>
	<rect x="86.2" y="543.6" class="st5" width="200" height="187"/>
	<rect x="165.2" y="538.5" class="st3" width="42" height="198.1"/>
	<circle class="st2" cx="793.2" cy="182.5" r="182.5"/>
	<path class="st3" d="M743.9,449l44.9,27.8v-188l-50.3-31.2c-4.2-2.6-7.2-6.6-8.5-11.3l0,0h0c4.8-0.9,9.8,0,13.9,2.6l44.9,27.8
		v-72.9c0-14.1,1.7-28.2,5.2-41.8c3.4,13.7,5.2,27.7,5.2,41.8v119l66.2-41c5.3-3.3,11.4-5,17.6-4.9c-2.7,5.6-6.9,10.3-12.2,13.6
		l-71.7,44.4V705h-10.3V489l-50.3-31.2c-4.2-2.6-7.2-6.6-8.5-11.3l0,0h0C734.8,445.5,739.7,446.4,743.9,449z"/>
	<path class="st3" d="M804.4,732.5c1.2,0,2.3,0.4,3.2,1.2c2.8-7.4,7-12.2,11.9-12.2c4.8,0,9.1,4.8,11.9,12.2
		c0.9-0.7,2.1-1.1,3.2-1.2c5.5,0,9.9,9.4,9.9,21h-50C794.5,741.9,799,732.5,804.4,732.5z"/>
	<path class="st3" d="M698.4,679.5c1.2,0,2.3,0.4,3.2,1.2c2.8-7.4,7-12.2,11.9-12.2c4.8,0,9.1,4.8,11.9,12.2
		c0.9-0.7,2.1-1.1,3.2-1.2c5.5,0,9.9,9.4,9.9,21h-50C688.5,688.9,693,679.5,698.4,679.5z"/>
	<path class="st3" d="M823.4,693.5c1.2,0,2.3,0.4,3.2,1.2c2.8-7.4,7-12.2,11.9-12.2c4.8,0,9.1,4.8,11.9,12.2
		c0.9-0.7,2.1-1.1,3.2-1.2c5.5,0,9.9,9.4,9.9,21h-50C813.5,702.9,818,693.5,823.4,693.5z"/>
	<path class="st3" d="M45.4,526.2c1.1,17.6,24.9,30.5,24.9,30.5s22.1-15.7,21-33.3s-24.9-30.5-24.9-30.5S44.3,508.5,45.4,526.2z"/>
	<path class="st3" d="M44.3,581.2c17.6-1,30.6-24.8,30.6-24.8s-15.6-22.1-33.3-21.1S11,560.1,11,560.1S26.6,582.2,44.3,581.2z"/>
	<polygon class="st6" points="86.2,564 86.2,629.3 151.2,543.6 101.7,543.6 	"/>
	
		<rect x="-31.2" y="549.9" transform="matrix(0.6039 -0.7971 0.7971 0.6039 -419.4882 296.7298)" class="st5" width="240" height="41"/>
	
		<rect x="67.9" y="545.6" transform="matrix(0.6039 -0.7971 0.7971 0.6039 -416.6163 295.915)" class="st3" width="43" height="43"/>
	
		<rect x="222.9" y="411.5" transform="matrix(0.9659 -0.2588 0.2588 0.9659 -103.9934 78.3516)" class="st2" width="45.3" height="45.3"/>
	<path class="st1" d="M248.1,468.4l45.7-12.2l-12.2-45.7l-45.7,12.2L248.1,468.4z M291.3,454.7l-41.8,11.2l-11.2-41.8l41.8-11.2
		L291.3,454.7z"/>
</g>
</svg>
