<svg xmlns="http://www.w3.org/2000/svg" viewBox="0 0 921.3 854.51"><title>ic_add_cart_1</title><g id="Layer_2" data-name="Layer 2"><g id="Layer_1-2" data-name="Layer 1"><path d="M367.8,732.83c2.76,8.3,2.76,19.36,2.76,30.42,0,49.78-41.48,91.26-91.25,91.26-52.55,0-94-41.48-94-91.26,0-24.89,11.06-49.78,27.66-66.37,8.29-5.53,16.59-13.83,24.88-16.59L130,60.84H30.42A30.69,30.69,0,0,1,0,30.42,30.69,30.69,0,0,1,30.42,0H154.86c16.59,0,27.66,11.06,30.42,27.65l91.26,517.13,511.6,2.77L860,149.33c2.76-16.59,16.59-27.65,33.18-24.89,19.36,2.77,30.42,19.36,27.66,35.95L846.21,583.5c-2.76,13.83-19.36,24.89-33.18,24.89L287.6,605.62l11.06,63.61h495c49.78,0,91.26,41.48,91.26,94,0,49.78-41.48,91.26-91.26,91.26-52.54,0-94-41.48-94-91.26,0-11.06,2.76-22.12,5.53-30.42Zm24.89-450.76a30.42,30.42,0,0,1,0-60.84H500.54V113.38c0-16.59,13.82-30.42,33.18-30.42a30.69,30.69,0,0,1,30.42,30.42V221.23H672a30.42,30.42,0,0,1,0,60.84H564.14V392.69a30.69,30.69,0,0,1-30.42,30.42c-19.36,0-33.18-13.83-33.18-30.42V282.07Zm401,450.76h0c-8.3,0-16.59,2.77-22.12,8.3s-8.3,13.82-8.3,22.12a30.42,30.42,0,1,0,30.42-30.42Zm-514.36,0h0c-8.3,0-16.6,2.77-22.13,8.3s-8.29,13.82-8.29,22.12a30.42,30.42,0,1,0,30.42-30.42Z"/></g></g></svg>