<?xml version="1.0" encoding="utf-8"?>
<!-- Generator: Adobe Illustrator 24.0.2, SVG Export Plug-In . SVG Version: 6.00 Build 0)  -->
<svg version="1.1" id="Layer_1" xmlns="http://www.w3.org/2000/svg" xmlns:xlink="http://www.w3.org/1999/xlink" x="0px" y="0px"
	 viewBox="0 0 62 77.6" style="enable-background:new 0 0 62 77.6;" xml:space="preserve">
<title>ic_bag</title>
<g id="Layer_1-2">
	<path d="M62,67.3L57.6,17c-0.1-1-0.9-1.8-1.9-1.8h-9.4C46.2,6.8,39.4,0,31,0S15.8,6.8,15.8,15.2H6.4c-1,0-1.8,0.8-1.9,1.8L0,67.3
		c0,0.1,0,0.1,0,0.2c0,5.6,5.2,10.2,11.5,10.2h39c6.4,0,11.5-4.6,11.5-10.2C62,67.4,62,67.3,62,67.3z M31,3.9
		c6.2,0,11.3,5,11.3,11.3H19.7C19.7,9,24.8,3.9,31,3.9z"/>
</g>
</svg>
