<svg xmlns="http://www.w3.org/2000/svg" viewBox="0 0 340.13 370.58"><defs><style>.cls-1{fill:#2f3b7f;}</style></defs><title>ic_logo</title><g id="Layer_2" data-name="Layer 2"><g id="Layer_2-2" data-name="Layer 2"><path class="cls-1" d="M163.1,228.39c.51,13.16,7,13.16,7,13.16s6.46,0,7-13.16-7-15.74-7-15.74S162.58,215.23,163.1,228.39Z"/><path class="cls-1" d="M293.68,86.19H241.55c-.1-8.26-1.46-42.28-27.7-66.4C207.44,13.9,192.32,0,170.06,0s-37.37,13.9-43.79,19.79C100,43.91,98.68,77.93,98.58,86.19H46.45L0,370.58H340.13Zm-38.2,29.94a13.94,13.94,0,1,1-13.93-13.94A13.93,13.93,0,0,1,255.48,116.13Zm-32.2,37.68c12.18,1,6.4,27.87-14.76,47.84s-23.23,10.93-23.23,10.93C232.77,180,223.28,153.81,223.28,153.81Zm-43.1,58.77c-3.56-35,39.69-61.87,39.69-61.87-.61.68-1.5,1.71-2.53,3-1.47,1.85-2.35,3.14-3.4,4.61-2.23,3.11-3.86,5.12-4.39,5.81C207.39,167,200,178.81,180.18,212.58ZM170.06,8.77c31.43-.1,49.85,31.4,53,36.84a81.44,81.44,0,0,1,10.84,40.58H106.19a82.73,82.73,0,0,1,11.42-41C121.29,39.07,139.36,8.88,170.06,8.77ZM154.84,212.58s-2.07,9-23.23-10.93-26.94-46.81-14.76-47.84C116.85,153.81,107.35,180,154.84,212.58Zm-24.26-48.45c-.49-.63-2-2.51-4.13-5.42-1.26-1.76-2.11-3.05-3.66-5-1-1.31-1.94-2.34-2.53-3,0,0,43.25,26.91,39.69,61.87C140.21,178.87,132.77,166.94,130.58,164.13Zm-32-61.94a13.94,13.94,0,1,1-13.93,13.94A13.94,13.94,0,0,1,98.58,102.19Zm34.58,209c-3.1,3.09-6.19,0-6.19,0-8.78-23.23-55.23-28.91-55.23-28.91,12.39-32,45.94-35.55,45.94-35.55-23.74,8.33-36.13,30.67-36.13,30.67,25.8.8,45.93,22.43,45.93,22.43,1-36.64,34.48-56.21,34.48-56.21C139.66,257.65,133.16,311.23,133.16,311.23Zm80,0s-3.1,3.09-6.19,0c0,0-6.5-53.58-28.8-67.57,0,0,33.44,19.57,34.48,56.21,0,0,20.12-21.63,45.93-22.43,0,0-12.39-22.34-36.13-30.67,0,0,33.55,3.55,45.94,35.55C268.39,282.32,221.94,288,213.16,311.23Zm55.23-90.33c-3.62,7.23-13.42,21.68-53.68,22.76-30.49.82-34.42-1.74-34.53-3-3.45,7.21-10.12,6.08-10.12,6.08s-6.66,1.13-10.11-6.08c-.11,1.29-4,3.85-34.53,3-40.26-1.08-50.07-15.53-53.68-22.76s10.84-48.51,33-61.42c0,0-30.45,36.13-24.77,58.33s73.21,23,79.63,22.13h0a26.56,26.56,0,0,1-1.7-10.27c0-19.1,12.12-17,12.12-17s12.13-2.07,12.13,17A26.53,26.53,0,0,1,180.48,240h0c6.42.85,73.95.06,79.63-22.13s-24.78-58.33-24.78-58.33C257.55,172.39,272,213.68,268.39,220.9Z"/></g></g></svg>