<svg xmlns="http://www.w3.org/2000/svg" viewBox="0 0 336.59 370.61"><defs><style>.cls-1{fill:#2f3b7f;}</style></defs><title>ic_logo_2</title><g id="Layer_2" data-name="Layer 2"><g id="Layer_2-2" data-name="Layer 2"><path class="cls-1" d="M161.65,228.39c.52,13.16,7,13.16,7,13.16s6.45,0,7-13.16-7-15.74-7-15.74S161.13,215.23,161.65,228.39Z"/><path class="cls-1" d="M290.39,87.81A8,8,0,0,0,286,86.19H240.1c-.1-8.26-1.45-42.28-27.69-66.4C206,13.9,190.87,0,168.62,0s-37.38,13.9-43.79,19.79c-26.24,24.12-27.6,58.14-27.7,66.4l-45.42.1a7.37,7.37,0,0,0-5,1.42,7.28,7.28,0,0,0-2.51,3.58Q22.09,226.5,0,361.7a9,9,0,0,0,2.94,6.78,8.86,8.86,0,0,0,6.48,2.1H325.78a11.73,11.73,0,0,0,10.61-14Q314.78,224.27,293.17,92A8.33,8.33,0,0,0,290.39,87.81ZM254,116.13a13.94,13.94,0,1,1-13.94-13.94A13.93,13.93,0,0,1,254,116.13Zm-32.21,37.68c12.18,1,6.4,27.87-14.76,47.84s-23.23,10.93-23.23,10.93C231.33,180,221.83,153.81,221.83,153.81Zm-43.1,58.77c-3.56-35,39.69-61.87,39.69-61.87-.61.68-1.5,1.71-2.53,3-1.47,1.85-2.35,3.14-3.4,4.61-2.23,3.11-3.86,5.12-4.39,5.81C206,167,198.56,178.81,178.73,212.58ZM168.62,8.77c31.42-.1,49.84,31.4,53,36.84a81.44,81.44,0,0,1,10.84,40.58H104.75a82.51,82.51,0,0,1,11.42-41C119.85,39.07,137.92,8.88,168.62,8.77ZM153.39,212.58s-2.06,9-23.22-10.93-26.95-46.81-14.77-47.84C115.4,153.81,105.91,180,153.39,212.58Zm-24.26-48.45c-.49-.63-2-2.51-4.13-5.42-1.26-1.76-2.11-3.05-3.66-5-1-1.31-1.94-2.34-2.53-3,0,0,43.25,26.91,39.7,61.87C138.76,178.87,131.32,166.94,129.13,164.13Zm-32-61.94A13.94,13.94,0,1,1,83.2,116.13,13.94,13.94,0,0,1,97.13,102.19Zm34.58,209c-3.09,3.09-6.19,0-6.19,0-8.77-23.23-55.23-28.91-55.23-28.91,12.39-32,45.94-35.55,45.94-35.55C92.49,255.1,80.1,277.44,80.1,277.44c25.81.8,45.94,22.43,45.94,22.43,1-36.64,34.47-56.21,34.47-56.21C138.21,257.65,131.71,311.23,131.71,311.23Zm80,0s-3.09,3.09-6.19,0c0,0-6.5-53.58-28.8-67.57,0,0,33.45,19.57,34.48,56.21,0,0,20.13-21.63,45.93-22.43,0,0-12.38-22.34-36.13-30.67,0,0,33.55,3.55,45.94,35.55C266.94,282.32,220.49,288,211.71,311.23Zm55.23-90.33c-3.61,7.23-13.42,21.68-53.68,22.76-30.48.82-34.41-1.74-34.53-3-3.45,7.21-10.11,6.08-10.11,6.08s-6.67,1.13-10.12-6.08c-.11,1.29-4,3.85-34.53,3-40.26-1.08-50.06-15.53-53.68-22.76s10.84-48.51,33-61.42c0,0-30.45,36.13-24.78,58.33s73.22,23,79.63,22.13h0a26.53,26.53,0,0,1-1.71-10.27c0-19.1,12.13-17,12.13-17s12.13-2.07,12.13,17A26.53,26.53,0,0,1,179,240h0c6.42.85,73.95.06,79.63-22.13s-24.77-58.33-24.77-58.33C256.1,172.39,270.55,213.68,266.94,220.9Z"/></g></g></svg>