<svg xmlns="http://www.w3.org/2000/svg" viewBox="0 0 102.58 83.98"><defs><style>.cls-1{fill:#a1b3ff;}</style></defs><title>ic_lace</title><g id="Layer_2" data-name="Layer 2"><g id="Layer_2-2" data-name="Layer 2"><path class="cls-1" d="M24.11,49.83S6.71,51.67.29,68.27c0,0,24.09,3,28.64,15a2.23,2.23,0,0,0,3.22,0s3.37-27.79,14.94-35c0,0-17.35,10.15-17.89,29.15,0,0-10.44-11.21-23.83-11.63C5.37,65.74,11.8,54.15,24.11,49.83Z"/><path class="cls-1" d="M31.34,26.43c11,10.36,12.05,5.66,12.05,5.66C18.76,15.19,23.69,1.61,23.69,1.61,17.37,2.14,20.37,16.06,31.34,26.43Z"/><path class="cls-1" d="M73.38,77.37c-.54-19-17.89-29.15-17.89-29.15,11.57,7.25,14.94,35,14.94,35a2.23,2.23,0,0,0,3.22,0c4.55-12,28.64-15,28.64-15-6.42-16.6-23.83-18.44-23.83-18.44,12.32,4.32,18.75,15.91,18.75,15.91C83.82,66.16,73.38,77.37,73.38,77.37Z"/><path class="cls-1" d="M85.16,4.55S101,23.29,98,34.81,60,46.73,56.7,46.28h0A13.62,13.62,0,0,0,57.58,41c0-9.9-6.29-8.83-6.29-8.83s3.88,1.34,3.61,8.16-3.61,6.83-3.61,6.83-3.35,0-3.61-6.83,3.61-8.16,3.61-8.16S45,31.06,45,41a13.83,13.83,0,0,0,.88,5.33h0c-3.33.45-38.36,0-41.31-11.47S17.42,4.55,17.42,4.55C5.91,11.24-1.59,32.66.29,36.41s7,11.25,27.84,11.81c15.81.42,17.85-.9,17.91-1.57a5.1,5.1,0,0,0,5.25,3.15,5.1,5.1,0,0,0,5.25-3.15c.06.67,2.09,2,17.91,1.57,20.88-.56,26-8.06,27.84-11.81S96.67,11.24,85.16,4.55Z"/><path class="cls-1" d="M30.81,7c1.13,1.46,5,7.65,15.23,25.13C47.89,14,25.45,0,25.45,0c.31.34.78.88,1.32,1.56.8,1,1.24,1.68,1.9,2.59C29.75,5.66,30.55,6.63,30.81,7Z"/><path class="cls-1" d="M56.53,32.09C66.82,14.58,70.65,8.42,71.77,7c.28-.36,1.12-1.4,2.28-3,.54-.76,1-1.43,1.76-2.39.54-.67,1-1.21,1.32-1.56C77.13,0,54.69,14,56.53,32.09Z"/><path class="cls-1" d="M59.19,32.09s1.07,4.7,12-5.66,14-24.29,7.65-24.82C78.89,1.61,83.82,15.19,59.19,32.09Z"/></g></g></svg>